<svg width="136" height="54" viewBox="0 0 136 54" fill="none" xmlns="http://www.w3.org/2000/svg">
<path d="M7.6885 43C6.9845 43 6.3925 42.76 5.9125 42.28C5.4325 41.8 5.1925 41.208 5.1925 40.504V8.008C5.1925 7.272 5.4325 6.68 5.9125 6.232C6.3925 5.752 6.9845 5.512 7.6885 5.512H16.3285C18.7285 5.512 20.8565 6.024 22.7125 7.048C24.5685 8.04 26.0085 9.416 27.0325 11.176C28.0885 12.936 28.6165 14.984 28.6165 17.32C28.6165 19.496 28.0885 21.432 27.0325 23.128C26.0085 24.824 24.5685 26.152 22.7125 27.112C20.8565 28.072 18.7285 28.552 16.3285 28.552H10.1845V40.504C10.1845 41.208 9.9445 41.8 9.4645 42.28C9.0165 42.76 8.4245 43 7.6885 43ZM27.6085 43C27.1605 43 26.7445 42.904 26.3605 42.712C26.0085 42.52 25.7045 42.216 25.4485 41.8L16.8085 27.88L21.6565 26.488L29.5285 39.16C30.1045 40.088 30.1845 40.968 29.7685 41.8C29.3525 42.6 28.6325 43 27.6085 43ZM10.1845 23.944H16.3285C17.8005 23.944 19.0965 23.672 20.2165 23.128C21.3365 22.552 22.2165 21.768 22.8565 20.776C23.4965 19.752 23.8165 18.6 23.8165 17.32C23.8165 15.912 23.4965 14.664 22.8565 13.576C22.2165 12.488 21.3365 11.64 20.2165 11.032C19.0965 10.424 17.8005 10.12 16.3285 10.12H10.1845V23.944ZM37.2486 43C36.5446 43 35.9526 42.776 35.4726 42.328C35.0246 41.848 34.8006 41.256 34.8006 40.552V19.192C34.8006 18.456 35.0246 17.864 35.4726 17.416C35.9526 16.968 36.5446 16.744 37.2486 16.744C37.9846 16.744 38.5766 16.968 39.0246 17.416C39.4726 17.864 39.6966 18.456 39.6966 19.192V40.552C39.6966 41.256 39.4726 41.848 39.0246 42.328C38.5766 42.776 37.9846 43 37.2486 43ZM37.2486 12.472C36.3846 12.472 35.6326 12.168 34.9926 11.56C34.3846 10.92 34.0806 10.168 34.0806 9.304C34.0806 8.44 34.3846 7.704 34.9926 7.096C35.6326 6.456 36.3846 6.136 37.2486 6.136C38.1126 6.136 38.8486 6.456 39.4566 7.096C40.0966 7.704 40.4166 8.44 40.4166 9.304C40.4166 10.168 40.0966 10.92 39.4566 11.56C38.8486 12.168 38.1126 12.472 37.2486 12.472ZM59.989 43.192C57.493 43.192 55.237 42.616 53.221 41.464C51.237 40.28 49.653 38.68 48.469 36.664C47.317 34.648 46.741 32.376 46.741 29.848C46.741 27.32 47.269 25.064 48.325 23.08C49.413 21.064 50.885 19.48 52.741 18.328C54.597 17.144 56.693 16.552 59.029 16.552C60.917 16.552 62.661 16.952 64.261 17.752C65.861 18.52 67.205 19.576 68.293 20.92V7.96C68.293 7.224 68.517 6.632 68.965 6.184C69.445 5.736 70.037 5.512 70.741 5.512C71.477 5.512 72.069 5.736 72.517 6.184C72.965 6.632 73.189 7.224 73.189 7.96V29.848C73.189 32.376 72.597 34.648 71.413 36.664C70.261 38.68 68.693 40.28 66.709 41.464C64.725 42.616 62.485 43.192 59.989 43.192ZM59.989 38.872C61.621 38.872 63.077 38.488 64.357 37.72C65.637 36.92 66.645 35.832 67.381 34.456C68.117 33.08 68.485 31.544 68.485 29.848C68.485 28.12 68.117 26.584 67.381 25.24C66.645 23.896 65.637 22.84 64.357 22.072C63.077 21.272 61.621 20.872 59.989 20.872C58.389 20.872 56.933 21.272 55.621 22.072C54.341 22.84 53.317 23.896 52.549 25.24C51.813 26.584 51.445 28.12 51.445 29.848C51.445 31.544 51.813 33.08 52.549 34.456C53.317 35.832 54.341 36.92 55.621 37.72C56.933 38.488 58.389 38.872 59.989 38.872ZM93.451 43.192C90.795 43.192 88.427 42.632 86.347 41.512C84.299 40.36 82.683 38.792 81.499 36.808C80.347 34.792 79.771 32.488 79.771 29.896C79.771 27.272 80.315 24.968 81.403 22.984C82.523 20.968 84.059 19.4 86.011 18.28C87.963 17.128 90.203 16.552 92.731 16.552C95.227 16.552 97.371 17.112 99.163 18.232C100.955 19.32 102.315 20.84 103.243 22.792C104.203 24.712 104.683 26.936 104.683 29.464C104.683 30.072 104.475 30.584 104.059 31C103.643 31.384 103.115 31.576 102.475 31.576H83.131V27.736H102.331L100.363 29.08C100.331 27.48 100.011 26.056 99.403 24.808C98.795 23.528 97.931 22.52 96.811 21.784C95.691 21.048 94.331 20.68 92.731 20.68C90.907 20.68 89.339 21.08 88.027 21.88C86.747 22.68 85.771 23.784 85.099 25.192C84.427 26.568 84.091 28.136 84.091 29.896C84.091 31.656 84.491 33.224 85.291 34.6C86.091 35.976 87.195 37.064 88.603 37.864C90.011 38.664 91.627 39.064 93.451 39.064C94.443 39.064 95.451 38.888 96.475 38.536C97.531 38.152 98.379 37.72 99.019 37.24C99.499 36.888 100.011 36.712 100.555 36.712C101.131 36.68 101.627 36.84 102.043 37.192C102.587 37.672 102.875 38.2 102.907 38.776C102.939 39.352 102.683 39.848 102.139 40.264C101.051 41.128 99.691 41.832 98.059 42.376C96.459 42.92 94.923 43.192 93.451 43.192Z" fill="black"/>
<path d="M121.506 14C129.514 14 136.006 20.4919 136.006 28.5C136.006 31.9913 134.771 35.1937 132.716 37.6963C128.99 44.3579 123.688 48.6978 121.003 48.6982C118.207 48.6978 111.306 42.1656 108.29 34.4736C107.758 33.2997 107.378 32.0423 107.175 30.7266C107.01 29.8922 106.9 29.0546 106.858 28.2197C106.825 27.5719 106.93 26.9745 107.153 26.4268C108.159 19.4009 114.202 14.0002 121.506 14ZM121.5 22C117.358 22.0002 114 25.358 114 29.5C114 33.642 117.358 36.9998 121.5 37C125.642 37 129 33.6421 129 29.5C129 25.3579 125.642 22 121.5 22Z" fill="#0D5DF4"/>
</svg>
